<svg width="12" height="11" viewBox="0 0 12 11" fill="none" xmlns="http://www.w3.org/2000/svg">
<path d="M7.49979 5.49925V10.3142C7.52979 10.4975 7.4548 10.693 7.28232 10.8213C7.21295 10.878 7.13054 10.9229 7.03982 10.9536C6.94911 10.9842 6.85186 11 6.75364 11C6.65543 11 6.55818 10.9842 6.46747 10.9536C6.37675 10.9229 6.29434 10.878 6.22497 10.8213L4.71768 9.59314C4.63589 9.528 4.5737 9.44832 4.53598 9.36034C4.49825 9.27236 4.48601 9.17846 4.50021 9.08599V5.49925H4.47771L0.158309 0.989866C0.0365318 0.862485 -0.0184164 0.701007 0.00547091 0.540717C0.0293582 0.380427 0.130139 0.234358 0.285791 0.134426C0.428271 0.0488823 0.58575 0 0.750727 0H11.2493C11.4142 0 11.5717 0.0488823 11.7142 0.134426C11.8699 0.234358 11.9706 0.380427 11.9945 0.540717C12.0184 0.701007 11.9635 0.862485 11.8417 0.989866L7.52229 5.49925H7.49979Z" fill="#0E0E0E"/>
</svg>
