<svg width="65" height="65" viewBox="0 0 65 65" fill="none" xmlns="http://www.w3.org/2000/svg">
<path d="M32.5 65C50.4493 65 65 50.4493 65 32.5C65 14.5507 50.4493 0 32.5 0C14.5507 0 0 14.5507 0 32.5C0 50.4493 14.5507 65 32.5 65Z" fill="#FCC000"/>
<path d="M25.9847 23.2626H29.7891V33.9756C29.7891 38.7855 27.4715 40.4909 23.7984 40.4909C22.8802 40.4909 21.7432 40.3598 21 40.0973L21.4373 36.9927C21.9621 37.1676 22.6617 37.2987 23.405 37.2987C25.0228 37.2987 26.0286 36.5553 26.0286 33.9756L25.9847 23.2626Z" fill="#323330"/>
<path d="M33.1551 36.2931C34.1608 36.818 35.7787 37.3427 37.3966 37.3427C39.1456 37.3427 40.0639 36.5992 40.0639 35.4623C40.0639 34.4129 39.2768 33.8006 37.2218 33.101C34.4232 32.0953 32.5428 30.5211 32.5428 28.0286C32.5428 25.1863 34.9915 23 38.9708 23C40.8947 23 42.2939 23.3936 43.2997 23.8745L42.4252 26.9354C41.7693 26.6294 40.5449 26.1482 38.9271 26.1482C37.2655 26.1482 36.4784 26.9354 36.4784 27.7662C36.4784 28.8594 37.3968 29.3402 39.6268 30.1712C42.6001 31.2643 43.9995 32.8387 43.9995 35.2436C43.9995 38.0858 41.8569 40.4909 37.1781 40.4909C35.2542 40.4909 33.33 39.9662 32.3682 39.4414L33.1551 36.2931Z" fill="#323330"/>
</svg>
