<svg width="11" height="11" viewBox="0 0 11 11" fill="none" xmlns="http://www.w3.org/2000/svg">
<path fill-rule="evenodd" clip-rule="evenodd" d="M10.9906 6.43103C11.0102 6.31984 10.9991 6.2054 10.9586 6.10001C10.9181 5.99463 10.8496 5.90227 10.7606 5.83288C10.6716 5.76348 10.5654 5.71967 10.4533 5.70614C10.3413 5.69261 10.2277 5.70987 10.1247 5.75609C9.44212 6.06264 8.68255 6.15436 7.9467 6.01908C7.21084 5.88381 6.53348 5.52792 6.00444 4.99863C5.4754 4.46933 5.11969 3.79164 4.98448 3.05544C4.84926 2.31923 4.94094 1.55929 5.24735 0.876412C5.29369 0.773363 5.31108 0.659622 5.29763 0.547426C5.28418 0.43523 5.24041 0.328826 5.17102 0.239663C5.10164 0.150501 5.00927 0.0819544 4.90384 0.0413995C4.79842 0.000844677 4.68394 -0.0101834 4.57273 0.00950189C3.20898 0.250321 1.98501 0.993874 1.14241 2.09339C0.299819 3.19291 -0.100179 4.56851 0.0213735 5.94865C0.142927 7.3288 0.777199 8.61321 1.79899 9.54837C2.82079 10.4835 4.15586 11.0015 5.54069 11C6.84076 11 8.09935 10.5421 9.09582 9.70673C10.0923 8.87132 10.7631 7.71166 10.9906 6.43103Z" fill="#0E0E0E"/>
</svg>
