<svg width="11" height="11" viewBox="0 0 11 11" fill="none" xmlns="http://www.w3.org/2000/svg">
<path d="M5.5 0C5.63675 0 5.7679 0.0543246 5.8646 0.151023C5.9613 0.247721 6.01562 0.378873 6.01562 0.515625V1.54688C6.01562 1.68363 5.9613 1.81478 5.8646 1.91148C5.7679 2.00818 5.63675 2.0625 5.5 2.0625C5.36325 2.0625 5.2321 2.00818 5.1354 1.91148C5.0387 1.81478 4.98438 1.68363 4.98438 1.54688V0.515625C4.98438 0.378873 5.0387 0.247721 5.1354 0.151023C5.2321 0.0543246 5.36325 0 5.5 0ZM5.5 8.9375C5.63675 8.9375 5.7679 8.99183 5.8646 9.08852C5.9613 9.18522 6.01562 9.31637 6.01562 9.45312V10.4844C6.01562 10.6211 5.9613 10.7523 5.8646 10.849C5.7679 10.9457 5.63675 11 5.5 11C5.36325 11 5.2321 10.9457 5.1354 10.849C5.0387 10.7523 4.98438 10.6211 4.98438 10.4844V9.45312C4.98438 9.31637 5.0387 9.18522 5.1354 9.08852C5.2321 8.99183 5.36325 8.9375 5.5 8.9375ZM5.5 3.4375C4.95299 3.4375 4.42839 3.6548 4.04159 4.04159C3.6548 4.42839 3.4375 4.95299 3.4375 5.5C3.4375 6.04701 3.6548 6.57161 4.04159 6.95841C4.42839 7.3452 4.95299 7.5625 5.5 7.5625C6.04701 7.5625 6.57161 7.3452 6.95841 6.95841C7.3452 6.57161 7.5625 6.04701 7.5625 5.5C7.5625 4.95299 7.3452 4.42839 6.95841 4.04159C6.57161 3.6548 6.04701 3.4375 5.5 3.4375ZM9.38919 2.34025C9.43985 2.29304 9.48048 2.23612 9.50866 2.17287C9.53684 2.10962 9.552 2.04134 9.55322 1.97211C9.55444 1.90288 9.54171 1.83411 9.51577 1.7699C9.48984 1.7057 9.45124 1.64737 9.40228 1.59841C9.35331 1.54945 9.29499 1.51085 9.23079 1.48492C9.16658 1.45898 9.09781 1.44625 9.02858 1.44747C8.95934 1.44869 8.89107 1.46384 8.82782 1.49203C8.76457 1.52021 8.70764 1.56084 8.66044 1.6115L7.931 2.34025C7.83992 2.438 7.79034 2.56728 7.79269 2.70086C7.79505 2.83444 7.84916 2.96189 7.94363 3.05637C8.03811 3.15084 8.16556 3.20495 8.29914 3.20731C8.43272 3.20966 8.562 3.16008 8.65975 3.069L9.38919 2.34025ZM3.069 8.65975C3.11966 8.61255 3.16029 8.55562 3.18847 8.49237C3.21666 8.42912 3.23181 8.36084 3.23303 8.29161C3.23425 8.22238 3.22152 8.15361 3.19558 8.0894C3.16965 8.0252 3.13105 7.96687 3.08209 7.91791C3.03313 7.86895 2.9748 7.83035 2.9106 7.80442C2.84639 7.77848 2.77762 7.76575 2.70839 7.76697C2.63916 7.76819 2.57088 7.78334 2.50763 7.81153C2.44438 7.83971 2.38745 7.88034 2.34025 7.931L1.6115 8.65975C1.52042 8.75749 1.47084 8.88678 1.47319 9.02036C1.47555 9.15394 1.52966 9.28139 1.62414 9.37586C1.71861 9.47034 1.84606 9.52445 1.97964 9.52681C2.11322 9.52916 2.2425 9.47958 2.34025 9.3885L3.069 8.65975ZM11 5.5C11 5.63675 10.9457 5.7679 10.849 5.8646C10.7523 5.9613 10.6211 6.01562 10.4844 6.01562H9.45312C9.31637 6.01562 9.18522 5.9613 9.08852 5.8646C8.99183 5.7679 8.9375 5.63675 8.9375 5.5C8.9375 5.36325 8.99183 5.2321 9.08852 5.1354C9.18522 5.0387 9.31637 4.98438 9.45312 4.98438H10.4844C10.6211 4.98438 10.7523 5.0387 10.849 5.1354C10.9457 5.2321 11 5.36325 11 5.5ZM2.0625 5.5C2.0625 5.63675 2.00818 5.7679 1.91148 5.8646C1.81478 5.9613 1.68363 6.01562 1.54688 6.01562H0.515625C0.378873 6.01562 0.247721 5.9613 0.151023 5.8646C0.0543246 5.7679 0 5.63675 0 5.5C0 5.36325 0.0543246 5.2321 0.151023 5.1354C0.247721 5.0387 0.378873 4.98438 0.515625 4.98438H1.54688C1.68363 4.98438 1.81478 5.0387 1.91148 5.1354C2.00818 5.2321 2.0625 5.36325 2.0625 5.5ZM8.65975 9.38919C8.75749 9.48027 8.88678 9.52985 9.02036 9.5275C9.15394 9.52514 9.28139 9.47102 9.37586 9.37655C9.47034 9.28208 9.52445 9.15463 9.52681 9.02105C9.52916 8.88746 9.47958 8.75818 9.3885 8.66044L8.65975 7.931C8.61255 7.88034 8.55562 7.83971 8.49237 7.81153C8.42912 7.78334 8.36084 7.76819 8.29161 7.76697C8.22238 7.76575 8.15361 7.77848 8.0894 7.80442C8.0252 7.83035 7.96687 7.86895 7.91791 7.91791C7.86895 7.96687 7.83035 8.0252 7.80442 8.0894C7.77848 8.15361 7.76575 8.22238 7.76697 8.29161C7.76819 8.36084 7.78334 8.42912 7.81153 8.49237C7.83971 8.55562 7.88034 8.61255 7.931 8.65975L8.65975 9.38919ZM2.34025 3.069C2.438 3.16008 2.56728 3.20966 2.70086 3.20731C2.83444 3.20495 2.96189 3.15084 3.05637 3.05637C3.15084 2.96189 3.20495 2.83444 3.20731 2.70086C3.20966 2.56728 3.16008 2.438 3.069 2.34025L2.34025 1.6115C2.29271 1.56223 2.23583 1.52292 2.17294 1.49587C2.11004 1.46882 2.04239 1.45456 1.97392 1.45393C1.90546 1.45331 1.83756 1.46632 1.77418 1.49222C1.71079 1.51811 1.65321 1.55637 1.60477 1.60476C1.55633 1.65315 1.51802 1.71071 1.49206 1.77406C1.46611 1.83742 1.45303 1.90531 1.45359 1.97377C1.45416 2.04224 1.46835 2.10991 1.49534 2.17283C1.52233 2.23575 1.56159 2.29266 1.61081 2.34025L2.34025 3.069Z" fill="white"/>
</svg>
